<svg width="74" height="29" viewBox="0 0 74 29" fill="none" xmlns="http://www.w3.org/2000/svg">
<circle cx="4.5" cy="4.5" r="4.5" fill="#06B002"/>
<path d="M5.11364 23V5.54545H7.22727V14.2045H7.43182L15.2727 5.54545H18.0341L10.7045 13.4205L18.0341 23H15.4773L9.40909 14.8864L7.22727 17.3409V23H5.11364ZM20.4972 23V9.90909H22.4403V11.8864H22.5767C22.8153 11.2386 23.2472 10.7131 23.8722 10.3097C24.4972 9.90625 25.2017 9.70454 25.9858 9.70454C26.1335 9.70454 26.3182 9.70739 26.5398 9.71307C26.7614 9.71875 26.929 9.72727 27.0426 9.73864V11.7841C26.9744 11.767 26.8182 11.7415 26.5739 11.7074C26.3352 11.6676 26.0824 11.6477 25.8153 11.6477C25.179 11.6477 24.6108 11.7812 24.1108 12.0483C23.6165 12.3097 23.2244 12.6733 22.9347 13.1392C22.6506 13.5994 22.5085 14.125 22.5085 14.7159V23H20.4972ZM29.4268 23V9.90909H31.4382V23H29.4268ZM30.4496 7.72727C30.0575 7.72727 29.7195 7.59375 29.4354 7.3267C29.157 7.05966 29.0178 6.73864 29.0178 6.36364C29.0178 5.98864 29.157 5.66761 29.4354 5.40057C29.7195 5.13352 30.0575 5 30.4496 5C30.8416 5 31.1768 5.13352 31.4553 5.40057C31.7393 5.66761 31.8814 5.98864 31.8814 6.36364C31.8814 6.73864 31.7393 7.05966 31.4553 7.3267C31.1768 7.59375 30.8416 7.72727 30.4496 7.72727ZM40.8153 9.90909V11.6136H34.0312V9.90909H40.8153ZM36.0085 6.77273H38.0199V19.25C38.0199 19.8182 38.1023 20.2443 38.267 20.5284C38.4375 20.8068 38.6534 20.9943 38.9148 21.0909C39.1818 21.1818 39.4631 21.2273 39.7585 21.2273C39.9801 21.2273 40.1619 21.2159 40.304 21.1932C40.446 21.1648 40.5597 21.142 40.6449 21.125L41.054 22.9318C40.9176 22.983 40.7273 23.0341 40.483 23.0852C40.2386 23.142 39.929 23.1705 39.554 23.1705C38.9858 23.1705 38.429 23.0483 37.8835 22.804C37.3438 22.5597 36.8949 22.1875 36.5369 21.6875C36.1847 21.1875 36.0085 20.5568 36.0085 19.7955V6.77273ZM49.5341 9.90909V11.6136H42.75V9.90909H49.5341ZM44.7273 6.77273H46.7386V19.25C46.7386 19.8182 46.821 20.2443 46.9858 20.5284C47.1563 20.8068 47.3722 20.9943 47.6335 21.0909C47.9006 21.1818 48.1818 21.2273 48.4773 21.2273C48.6989 21.2273 48.8807 21.2159 49.0227 21.1932C49.1648 21.1648 49.2784 21.142 49.3636 21.125L49.7727 22.9318C49.6364 22.983 49.446 23.0341 49.2017 23.0852C48.9574 23.142 48.6477 23.1705 48.2727 23.1705C47.7045 23.1705 47.1477 23.0483 46.6023 22.804C46.0625 22.5597 45.6136 22.1875 45.2557 21.6875C44.9034 21.1875 44.7273 20.5568 44.7273 19.7955V6.77273ZM57.9077 23.2727C56.6463 23.2727 55.5582 22.9943 54.6435 22.4375C53.7344 21.875 53.0327 21.0909 52.5384 20.0852C52.0497 19.0739 51.8054 17.8977 51.8054 16.5568C51.8054 15.2159 52.0497 14.0341 52.5384 13.0114C53.0327 11.983 53.7202 11.1818 54.6009 10.608C55.4872 10.0284 56.5213 9.73864 57.7031 9.73864C58.3849 9.73864 59.0582 9.85227 59.723 10.0795C60.3878 10.3068 60.9929 10.6761 61.5384 11.1875C62.0838 11.6932 62.5185 12.3636 62.8423 13.1989C63.1662 14.0341 63.3281 15.0625 63.3281 16.2841V17.1364H53.2372V15.3977H61.2827C61.2827 14.6591 61.1349 14 60.8395 13.4205C60.5497 12.8409 60.1349 12.3835 59.5952 12.0483C59.0611 11.7131 58.4304 11.5455 57.7031 11.5455C56.902 11.5455 56.2088 11.7443 55.6236 12.142C55.044 12.5341 54.598 13.0455 54.2855 13.6761C53.973 14.3068 53.8168 14.983 53.8168 15.7045V16.8636C53.8168 17.8523 53.9872 18.6903 54.3281 19.3778C54.6747 20.0597 55.1548 20.5795 55.7685 20.9375C56.3821 21.2898 57.0952 21.4659 57.9077 21.4659C58.4361 21.4659 58.9134 21.392 59.3395 21.2443C59.7713 21.0909 60.1435 20.8636 60.456 20.5625C60.7685 20.2557 61.0099 19.875 61.1804 19.4205L63.1236 19.9659C62.919 20.625 62.5753 21.2045 62.0923 21.7045C61.6094 22.1989 61.0128 22.5852 60.3026 22.8636C59.5923 23.1364 58.794 23.2727 57.9077 23.2727ZM66.3878 23V9.90909H68.331V11.8864H68.4673C68.706 11.2386 69.1378 10.7131 69.7628 10.3097C70.3878 9.90625 71.0923 9.70454 71.8764 9.70454C72.0241 9.70454 72.2088 9.70739 72.4304 9.71307C72.652 9.71875 72.8196 9.72727 72.9332 9.73864V11.7841C72.8651 11.767 72.7088 11.7415 72.4645 11.7074C72.2259 11.6676 71.973 11.6477 71.706 11.6477C71.0696 11.6477 70.5014 11.7812 70.0014 12.0483C69.5071 12.3097 69.1151 12.6733 68.8253 13.1392C68.5412 13.5994 68.3991 14.125 68.3991 14.7159V23H66.3878Z" fill="white"/>
</svg>
