<svg width="21" height="22" viewBox="0 0 21 22" fill="none" xmlns="http://www.w3.org/2000/svg">
<g clip-path="url(#clip0_57_298)">
<path d="M20.9888 11.2058C20.9888 10.3045 20.9173 9.64674 20.7627 8.96466H10.7092V13.0328H16.6104C16.4914 14.0438 15.849 15.5663 14.4212 16.5894L14.4012 16.7256L17.58 19.2466L17.8002 19.2691C19.8228 17.3568 20.9888 14.5432 20.9888 11.2058Z" fill="#4285F4"/>
<path d="M10.7092 21.9244C13.6003 21.9244 16.0274 20.95 17.8002 19.2691L14.4212 16.5894C13.517 17.235 12.3034 17.6857 10.7092 17.6857C7.87752 17.6857 5.4742 15.7734 4.61748 13.1303L4.49191 13.1412L1.1866 15.76L1.14337 15.883C2.90421 19.464 6.52112 21.9244 10.7092 21.9244Z" fill="#34A853"/>
<path d="M4.61748 13.1303C4.39143 12.4482 4.26061 11.7174 4.26061 10.9622C4.26061 10.207 4.39143 9.47621 4.60559 8.79413L4.5996 8.64886L1.25287 5.98804L1.14337 6.04136C0.417645 7.52737 0.0012207 9.19609 0.0012207 10.9622C0.0012207 12.7284 0.417645 14.397 1.14337 15.883L4.61748 13.1303Z" fill="#FBBC05"/>
<path d="M10.7092 4.23869C12.7198 4.23869 14.0761 5.12785 14.8495 5.87089L17.8715 2.85018C16.0155 1.08405 13.6003 0 10.7092 0C6.52112 0 2.90421 2.46039 1.14337 6.04135L4.60559 8.79412C5.4742 6.15102 7.87752 4.23869 10.7092 4.23869Z" fill="#EB4335"/>
</g>
<defs>
<clipPath id="clip0_57_298">
<rect width="21" height="22" fill="white"/>
</clipPath>
</defs>
</svg>
